<svg xmlns="http://www.w3.org/2000/svg" viewBox="0 0 100 100">
  <defs>
    <linearGradient id="grad1" x1="0%" y1="0%" x2="100%" y2="100%">
      <stop offset="0%" style="stop-color:#667eea;stop-opacity:1" />
      <stop offset="100%" style="stop-color:#764ba2;stop-opacity:1" />
    </linearGradient>
  </defs>
  
  <!-- Background circle -->
  <circle cx="50" cy="50" r="45" fill="url(#grad1)" stroke="white" stroke-width="3"/>
  
  <!-- Roulette wheel segments -->
  <g transform="translate(50,50)">
    <!-- Red segment -->
    <path d="M 0,-35 A 35,35 0 0,1 24.7,-24.7 L 0,0 Z" fill="#ff6b6b"/>
    <!-- Black segment -->
    <path d="M 24.7,-24.7 A 35,35 0 0,1 35,0 L 0,0 Z" fill="#2d3436"/>
    <!-- Red segment -->
    <path d="M 35,0 A 35,35 0 0,1 24.7,24.7 L 0,0 Z" fill="#ff6b6b"/>
    <!-- Black segment -->
    <path d="M 24.7,24.7 A 35,35 0 0,1 0,35 L 0,0 Z" fill="#2d3436"/>
    <!-- Red segment -->
    <path d="M 0,35 A 35,35 0 0,1 -24.7,24.7 L 0,0 Z" fill="#ff6b6b"/>
    <!-- Black segment -->
    <path d="M -24.7,24.7 A 35,35 0 0,1 -35,0 L 0,0 Z" fill="#2d3436"/>
    <!-- Red segment -->
    <path d="M -35,0 A 35,35 0 0,1 -24.7,-24.7 L 0,0 Z" fill="#ff6b6b"/>
    <!-- Green segment (smaller) -->
    <path d="M -24.7,-24.7 A 35,35 0 0,1 0,-35 L 0,0 Z" fill="#00b894"/>
  </g>
  
  <!-- Center target -->
  <circle cx="50" cy="50" r="8" fill="white" stroke="#333" stroke-width="2"/>
  <circle cx="50" cy="50" r="4" fill="#667eea"/>
  
  <!-- Target crosshairs -->
  <line x1="42" y1="50" x2="46" y2="50" stroke="white" stroke-width="2"/>
  <line x1="54" y1="50" x2="58" y2="50" stroke="white" stroke-width="2"/>
  <line x1="50" y1="42" x2="50" y2="46" stroke="white" stroke-width="2"/>
  <line x1="50" y1="54" x2="50" y2="58" stroke="white" stroke-width="2"/>
</svg> 